<svg xmlns="http://www.w3.org/2000/svg" width="16" height="16"><g color="#000" fill="#2e3436"><path d="m7.19 2.28-.3.2L5.58 3.8A1.68 1.68 0 1 1 3.4 5.97L2.33 7.04c.5-.07 1.02-.14 1.2.02.24.22.14 1.03.16 1.66.21.09.42.17.65.22h.13c.34-.53.68-1.29 1-1.35.32-.05.9.57 1.4.94a3.67 3.67 0 0 0 .66-.47c-.2-.6-.6-1.37-.44-1.65.16-.3 1.02-.37 1.63-.54.03-.18.06-.37.06-.56 0-.07-.03-.14-.03-.22-.59-.21-1.44-.38-1.56-.68-.13-.3.34-1.03.6-1.6a3.72 3.72 0 0 0-.6-.53zm3.87 3.25c-.16.48-.3 1.09-.47 1.56-.43.05-.84.14-1.22.32-.38-.33-.78-.78-1.15-1.1a5.56 5.56 0 0 0-.69.47c.18.46.45 1 .63 1.47a4 4 0 0 0-.72 1.06c-.5 0-1.1-.08-1.6-.1a5.68 5.68 0 0 0-.22.82c.44.24 1.01.47 1.44.72 0 .1-.03.19-.03.28 0 .33.05.66.13.97-.39.3-.9.63-1.28.94l.05.13.62.6 1.26-.3c.25.35.53.63.88.88l-.1.43c.17-.06.33-.16.48-.3l1.43-1.43a2 2 0 0 1 .53-3.92 2 2 0 0 1 1.92 1.47l1.34-1.34c.06-.06.1-.12.15-.2l-.1-.18.32-.47c.01-.35-.1-.7-.37-.97l-.18-.18c-.28.2-.56.4-.83.56a4.02 4.02 0 0 0-1.16-.5c-.07-.5-.1-1.13-.18-1.63a5.44 5.44 0 0 0-.88-.06zm-9.24.6-.26.21.02.04z" style="marker:none" overflow="visible"/><path d="M8.7.3a1 1 0 0 0-1.4 0l-7 7a1 1 0 0 0 0 1.4l7 7a1 1 0 0 0 1.4 0l7-7a1 1 0 0 0 0-1.4zM8 2.4 13.59 8 8 13.58l-5.59-5.6z" style="line-height:normal;font-variant-ligatures:normal;font-variant-position:normal;font-variant-caps:normal;font-variant-numeric:normal;font-variant-alternates:normal;font-feature-settings:normal;text-indent:0;text-align:start;text-decoration-line:none;text-decoration-style:solid;text-decoration-color:#000;text-transform:none;text-orientation:mixed;shape-padding:0;isolation:auto;mix-blend-mode:normal;marker:none" font-weight="400" font-family="sans-serif" overflow="visible"/></g></svg>