<?xml version="1.0" encoding="UTF-8"?>
<svg height="128px" viewBox="0 0 128 128" width="128px" xmlns="http://www.w3.org/2000/svg" xmlns:xlink="http://www.w3.org/1999/xlink">
    <filter id="a" height="100%" width="100%" x="0%" y="0%">
        <feColorMatrix in="SourceGraphic" type="matrix" values="0 0 0 0 1 0 0 0 0 1 0 0 0 0 1 0 0 0 1 0"/>
    </filter>
    <mask id="b">
        <g filter="url(#a)">
            <rect fill-opacity="0.16126" height="128" width="128"/>
        </g>
    </mask>
    <clipPath id="c">
        <rect height="152" width="192"/>
    </clipPath>
    <mask id="d">
        <g filter="url(#a)">
            <rect fill-opacity="0.3" height="128" width="128"/>
        </g>
    </mask>
    <clipPath id="e">
        <rect height="152" width="192"/>
    </clipPath>
    <mask id="f">
        <g filter="url(#a)">
            <rect fill-opacity="0.16126" height="128" width="128"/>
        </g>
    </mask>
    <clipPath id="g">
        <rect height="152" width="192"/>
    </clipPath>
    <mask id="h">
        <g filter="url(#a)">
            <rect fill-opacity="0.16126" height="128" width="128"/>
        </g>
    </mask>
    <clipPath id="i">
        <rect height="152" width="192"/>
    </clipPath>
    <path d="m 89.539062 116.128906 h -71.078124 c -3.566407 0 -6.460938 -2.894531 -6.460938 -6.460937 v -19.335938 c 0 -3.566406 2.894531 -6.460937 6.460938 -6.460937 h 71.078124 c 3.566407 0 6.460938 2.894531 6.460938 6.460937 v 19.335938 c 0 3.566406 -2.894531 6.460937 -6.460938 6.460937 z m 0 0" fill="#1c71d8"/>
    <path d="m 89.539062 114.128906 h -71.078124 c -3.566407 0 -6.460938 -2.207031 -6.460938 -4.933594 v -13.519531 c 0 -2.722656 2.894531 -4.933593 6.460938 -4.933593 h 71.078124 c 3.566407 0 6.460938 2.210937 6.460938 4.933593 v 13.519531 c 0 2.726563 -2.894531 4.933594 -6.460938 4.933594 z m 0 0" fill="#d5d3cf"/>
    <path d="m 89.539062 111.667969 h -71.078124 c -3.566407 0 -6.460938 -2.894531 -6.460938 -6.460938 v -58.746093 c 0 -3.566407 2.894531 -6.460938 6.460938 -6.460938 h 71.078124 c 3.566407 0 6.460938 2.894531 6.460938 6.460938 v 58.746093 c 0 3.566407 -2.894531 6.460938 -6.460938 6.460938 z m 0 0" fill="#f6f5f4"/>
    <g clip-path="url(#c)" mask="url(#b)" transform="matrix(1 0 0 1 -8 -16)">
        <path d="m 97.539062 132.128906 h -71.078124 c -3.566407 0 -6.460938 -2.894531 -6.460938 -6.460937 v -63.207031 c 0 -3.566407 2.894531 -6.460938 6.460938 -6.460938 h 71.078124 c 3.566407 0 6.460938 2.894531 6.460938 6.460938 v 63.207031 c 0 3.566406 -2.894531 6.460937 -6.460938 6.460937 z m 0 0" fill="#757575"/>
    </g>
    <path d="m 109.539062 48 h -71.078124 c -3.566407 0 -6.460938 -2.894531 -6.460938 -6.460938 v -19.332031 c 0 -3.570312 2.894531 -6.464843 6.460938 -6.464843 h 71.078124 c 3.566407 0 6.460938 2.894531 6.460938 6.464843 v 19.332031 c 0 3.566407 -2.894531 6.460938 -6.460938 6.460938 z m 0 0" fill="#b41a1a"/>
    <path d="m 109.539062 46 h -71.078124 c -3.566407 0 -6.460938 -2.207031 -6.460938 -4.929688 v -13.523437 c 0 -2.722656 2.894531 -4.929687 6.460938 -4.929687 h 71.078124 c 3.566407 0 6.460938 2.207031 6.460938 4.929687 v 13.523437 c 0 2.722657 -2.894531 4.929688 -6.460938 4.929688 z m 0 0" fill="#d5d3cf"/>
    <path d="m 109.539062 43.539062 h -71.078124 c -3.566407 0 -6.460938 -2.894531 -6.460938 -6.460937 v -16.617187 c 0 -3.566407 2.894531 -6.460938 6.460938 -6.460938 h 71.078124 c 3.566407 0 6.460938 2.894531 6.460938 6.460938 v 16.617187 c 0 3.566406 -2.894531 6.460937 -6.460938 6.460937 z m 0 0" fill="#f6f5f4"/>
    <path d="m 113 20 c 0 1.65625 -1.34375 3 -3 3 s -3 -1.34375 -3 -3 s 1.34375 -3 3 -3 s 3 1.34375 3 3 z m 0 0" fill="#d5d3cf"/>
    <g clip-path="url(#e)" fill="none" mask="url(#d)" stroke="#111111" stroke-width="2.47619" transform="matrix(1 0 0 1 -8 -16)">
        <path d="m 28.000012 252.000013 h 55.714286" transform="matrix(0.807692 0 0 0.807692 21.384606 -168.538478)"/>
        <path d="m 28.000012 258.190489 h 27.238095" transform="matrix(0.807692 0 0 0.807692 21.384606 -168.538478)"/>
        <path d="m 28.000012 264.380965 h 85.428572" transform="matrix(0.807692 0 0 0.807692 21.384606 -168.538478)"/>
        <path d="m 28.000012 270.571441 h 54.476191" transform="matrix(0.807692 0 0 0.807692 21.384606 -168.538478)"/>
        <path d="m 28.000012 276.761917 h 85.428572" transform="matrix(0.807692 0 0 0.807692 21.384606 -168.538478)"/>
        <path d="m 60.190488 258.190489 h 53.238096" transform="matrix(0.807692 0 0 0.807692 21.384606 -168.538478)"/>
        <path d="m 87.428584 270.571441 h 26" transform="matrix(0.807692 0 0 0.807692 21.384606 -168.538478)"/>
    </g>
    <path d="m 109.999998 19.988279 l 2 -1.988281 l -1.988281 2 l 1.988281 2 l -2 -1.988282 l -2 1.988282 l 1.988281 -2 l -1.988281 -2 z m 0 0" fill="none" stroke="#4b4b4b" stroke-linejoin="bevel" stroke-width="0.4"/>
    <g clip-path="url(#g)" mask="url(#f)" transform="matrix(1 0 0 1 -8 -16)">
        <path d="m 27 69 h 63 v 22 h -63 z m 0 0"/>
    </g>
    <g clip-path="url(#i)" mask="url(#h)" transform="matrix(1 0 0 1 -8 -16)">
        <path d="m 27 98 h 40 v 22 h -40 z m 0 0"/>
    </g>
</svg>
