<svg height="128" width="128" xmlns="http://www.w3.org/2000/svg"><filter id="a" height="100%" width="100%" x="0%" y="0%"><feColorMatrix in="SourceGraphic" values="0 0 0 0 1 0 0 0 0 1 0 0 0 0 1 0 0 0 1 0"/></filter><mask id="c"><g filter="url(#a)"><path fill-opacity=".2287" d="M0 0h128v128H0z"/></g></mask><clipPath id="b"><path d="M0 0h192v152H0z"/></clipPath><mask id="e"><g filter="url(#a)"><path fill-opacity=".3" d="M0 0h128v128H0z"/></g></mask><clipPath id="d"><path d="M0 0h192v152H0z"/></clipPath><mask id="g"><g filter="url(#a)"><path fill-opacity=".2979" d="M0 0h128v128H0z"/></g></mask><clipPath id="f"><path d="M0 0h192v152H0z"/></clipPath><mask id="i"><g filter="url(#a)"><path fill-opacity=".2979" d="M0 0h128v128H0z"/></g></mask><clipPath id="h"><path d="M0 0h192v152H0z"/></clipPath><path d="M89.539 116.129H18.461c-3.5665 0-6.461-2.8946-6.461-6.461V90.332c0-3.5664 2.8945-6.461 6.461-6.461h71.078c3.5665 0 6.461 2.8946 6.461 6.461v19.336c0 3.5664-2.8945 6.461-6.461 6.461zm0 0" fill="#1a5fb4"/><path d="M89.539 114.129H18.461c-3.5665 0-6.461-2.2071-6.461-4.9337V95.6758c0-2.7227 2.8945-4.9336 6.461-4.9336h71.078c3.5665 0 6.461 2.211 6.461 4.9336v13.5195c0 2.7266-2.8945 4.9336-6.461 4.9336zm0 0" fill="#949494"/><path d="M89.539 111.668H18.461c-3.5665 0-6.461-2.8946-6.461-6.461V46.461C12 42.8944 14.8945 40 18.461 40h71.078C93.1056 40 96 42.8945 96 46.461v58.746c0 3.5664-2.8945 6.461-6.461 6.461zm0 0" fill="#f6f5f4"/><g clip-path="url(#b)" mask="url(#c)" transform="translate(-8 -16)"><path d="M97.539 132.129H26.461c-3.5665 0-6.461-2.8946-6.461-6.461V62.461C20 58.8944 22.8945 56 26.461 56h71.078c3.5665 0 6.461 2.8945 6.461 6.461v63.207c0 3.5664-2.8945 6.461-6.461 6.461zm0 0"/></g><path d="M109.539 48H38.461C34.8944 48 32 45.1055 32 41.539V22.207c0-3.5703 2.8945-6.4648 6.461-6.4648h71.078c3.5665 0 6.461 2.8945 6.461 6.4648v19.332c0 3.5665-2.8945 6.461-6.461 6.461zm0 0" fill="#b41a1a"/><path d="M109.539 46H38.461C34.8944 46 32 43.793 32 41.0703V27.547c0-2.7227 2.8945-4.9297 6.461-4.9297h71.078c3.5665 0 6.461 2.207 6.461 4.9297v13.5234C116 43.793 113.1055 46 109.539 46zm0 0" fill="#d5d3cf"/><path d="M109.539 43.539H38.461c-3.5665 0-6.461-2.8945-6.461-6.4609V20.461C32 16.8945 34.8945 14 38.461 14h71.078c3.5665 0 6.461 2.8945 6.461 6.461v16.617c0 3.5664-2.8945 6.461-6.461 6.461zm0 0" fill="#fff"/><path d="M113.0938 20c0 1.711-1.3829 3.0938-3.0938 3.0938s-3.0938-1.3829-3.0938-3.0938 1.3829-3.0938 3.0938-3.0938 3.0938 1.3829 3.0938 3.0938zm0 0" fill="#d5d3cf"/><g clip-path="url(#d)" fill="none" mask="url(#e)" stroke="#111" stroke-width="2.8354" transform="translate(-8 -16)"><path d="M28 252.266h55.714M28 260.3813h27.2363M28 268.4967h85.4286M28 276.6168h54.4774m-22.2846-16.2355h53.2358M87.429 276.6168h25.9996" transform="matrix(.79599 0 0 .8077 21.7124 -168.5385)"/></g><path d="m110 19.9922 1.5664-1.5586L110.0078 20l1.5586 1.5664L110 20.0078l-1.5664 1.5586L109.9922 20l-1.5586-1.5664zm0 0" fill="none" stroke="#232323" stroke-linejoin="bevel" stroke-width="1.0913"/><g clip-path="url(#f)" mask="url(#g)" transform="translate(-8 -16)"><path d="M27 69h63v22H27zm0 0"/></g><g clip-path="url(#h)" mask="url(#i)" transform="translate(-8 -16)"><path d="M27 98h40v22H27zm0 0"/></g></svg>