<?xml version="1.0" encoding="UTF-8"?>
<svg height="128px" viewBox="0 0 128 128" width="128px" xmlns="http://www.w3.org/2000/svg" xmlns:xlink="http://www.w3.org/1999/xlink">
    <filter id="a" height="100%" width="100%" x="0%" y="0%">
        <feColorMatrix in="SourceGraphic" type="matrix" values="0 0 0 0 1 0 0 0 0 1 0 0 0 0 1 0 0 0 1 0"/>
    </filter>
    <mask id="b">
        <g filter="url(#a)">
            <rect fill-opacity="0.228688" height="128" width="128"/>
        </g>
    </mask>
    <clipPath id="c">
        <rect height="152" width="192"/>
    </clipPath>
    <mask id="d">
        <g filter="url(#a)">
            <rect fill-opacity="0.3" height="128" width="128"/>
        </g>
    </mask>
    <clipPath id="e">
        <rect height="152" width="192"/>
    </clipPath>
    <mask id="f">
        <g filter="url(#a)">
            <rect fill-opacity="0.29793" height="128" width="128"/>
        </g>
    </mask>
    <clipPath id="g">
        <rect height="152" width="192"/>
    </clipPath>
    <mask id="h">
        <g filter="url(#a)">
            <rect fill-opacity="0.29793" height="128" width="128"/>
        </g>
    </mask>
    <clipPath id="i">
        <rect height="152" width="192"/>
    </clipPath>
    <path d="m 89.539062 116.128906 h -71.078124 c -3.566407 0 -6.460938 -2.894531 -6.460938 -6.460937 v -19.335938 c 0 -3.566406 2.894531 -6.460937 6.460938 -6.460937 h 71.078124 c 3.566407 0 6.460938 2.894531 6.460938 6.460937 v 19.335938 c 0 3.566406 -2.894531 6.460937 -6.460938 6.460937 z m 0 0" fill="#1a5fb4"/>
    <path d="m 89.539062 114.128906 h -71.078124 c -3.566407 0 -6.460938 -2.207031 -6.460938 -4.933594 v -13.519531 c 0 -2.722656 2.894531 -4.933593 6.460938 -4.933593 h 71.078124 c 3.566407 0 6.460938 2.210937 6.460938 4.933593 v 13.519531 c 0 2.726563 -2.894531 4.933594 -6.460938 4.933594 z m 0 0" fill="#949494"/>
    <path d="m 89.539062 111.667969 h -71.078124 c -3.566407 0 -6.460938 -2.894531 -6.460938 -6.460938 v -58.746093 c 0 -3.566407 2.894531 -6.460938 6.460938 -6.460938 h 71.078124 c 3.566407 0 6.460938 2.894531 6.460938 6.460938 v 58.746093 c 0 3.566407 -2.894531 6.460938 -6.460938 6.460938 z m 0 0" fill="#f6f5f4"/>
    <g clip-path="url(#c)" mask="url(#b)" transform="matrix(1 0 0 1 -8 -16)">
        <path d="m 97.539062 132.128906 h -71.078124 c -3.566407 0 -6.460938 -2.894531 -6.460938 -6.460937 v -63.207031 c 0 -3.566407 2.894531 -6.460938 6.460938 -6.460938 h 71.078124 c 3.566407 0 6.460938 2.894531 6.460938 6.460938 v 63.207031 c 0 3.566406 -2.894531 6.460937 -6.460938 6.460937 z m 0 0"/>
    </g>
    <path d="m 109.539062 48 h -71.078124 c -3.566407 0 -6.460938 -2.894531 -6.460938 -6.460938 v -19.332031 c 0 -3.570312 2.894531 -6.464843 6.460938 -6.464843 h 71.078124 c 3.566407 0 6.460938 2.894531 6.460938 6.464843 v 19.332031 c 0 3.566407 -2.894531 6.460938 -6.460938 6.460938 z m 0 0" fill="#b41a1a"/>
    <path d="m 109.539062 46 h -71.078124 c -3.566407 0 -6.460938 -2.207031 -6.460938 -4.929688 v -13.523437 c 0 -2.722656 2.894531 -4.929687 6.460938 -4.929687 h 71.078124 c 3.566407 0 6.460938 2.207031 6.460938 4.929687 v 13.523437 c 0 2.722657 -2.894531 4.929688 -6.460938 4.929688 z m 0 0" fill="#d5d3cf"/>
    <path d="m 109.539062 43.539062 h -71.078124 c -3.566407 0 -6.460938 -2.894531 -6.460938 -6.460937 v -16.617187 c 0 -3.566407 2.894531 -6.460938 6.460938 -6.460938 h 71.078124 c 3.566407 0 6.460938 2.894531 6.460938 6.460938 v 16.617187 c 0 3.566406 -2.894531 6.460937 -6.460938 6.460937 z m 0 0" fill="#ffffff"/>
    <path d="m 113.09375 20 c 0 1.710938 -1.382812 3.09375 -3.09375 3.09375 s -3.09375 -1.382812 -3.09375 -3.09375 s 1.382812 -3.09375 3.09375 -3.09375 s 3.09375 1.382812 3.09375 3.09375 z m 0 0" fill="#d5d3cf"/>
    <g clip-path="url(#e)" fill="none" mask="url(#d)" stroke="#111111" stroke-width="2.83537" transform="matrix(1 0 0 1 -8 -16)">
        <path d="m 28.000011 252.26601 h 55.714067" transform="matrix(0.795987 0 0 0.807692 21.712364 -168.538478)"/>
        <path d="m 28.000011 260.381337 h 27.236243" transform="matrix(0.795987 0 0 0.807692 21.712364 -168.538478)"/>
        <path d="m 28.000011 268.496665 h 85.428563" transform="matrix(0.795987 0 0 0.807692 21.712364 -168.538478)"/>
        <path d="m 28.000011 276.616828 h 54.477394" transform="matrix(0.795987 0 0 0.807692 21.712364 -168.538478)"/>
        <path d="m 60.19276 260.381337 h 53.235814" transform="matrix(0.795987 0 0 0.807692 21.712364 -168.538478)"/>
        <path d="m 87.429003 276.616828 h 25.999571" transform="matrix(0.795987 0 0 0.807692 21.712364 -168.538478)"/>
    </g>
    <path d="m 110.00002783999 19.99219812995 l 1.56640648203 -1.558593932 l -1.558593932 1.56640648203 l 1.558593932 1.56640648203 l -1.56640648203 -1.558593932 l -1.56640648203 1.558593932 l 1.558593932 -1.56640648203 l -1.558593932 -1.56640648203 z m 0 0" fill="none" stroke="#232323" stroke-linejoin="bevel" stroke-width="1.091326608"/>
    <g clip-path="url(#g)" mask="url(#f)" transform="matrix(1 0 0 1 -8 -16)">
        <path d="m 27 69 h 63 v 22 h -63 z m 0 0"/>
    </g>
    <g clip-path="url(#i)" mask="url(#h)" transform="matrix(1 0 0 1 -8 -16)">
        <path d="m 27 98 h 40 v 22 h -40 z m 0 0"/>
    </g>
</svg>
